<?xml version="1.0" standalone="no"?><!DOCTYPE svg PUBLIC "-//W3C//DTD SVG 1.1//EN" "http://www.w3.org/Graphics/SVG/1.1/DTD/svg11.dtd"><svg t="1487139947921" class="icon" style="" viewBox="0 0 1024 1024" version="1.1" xmlns="http://www.w3.org/2000/svg" p-id="7963" xmlns:xlink="http://www.w3.org/1999/xlink" width="64" height="64"><defs><style type="text/css"></style></defs><path d="M100.67968 93.049417l822.660389 0c50.487589 0 91.400046 37.517166 91.400046 83.790263 0 46.272366-40.913189 83.790263-91.400046 83.790263L100.67968 260.629943c-50.507337 0-91.420526-37.517897-91.420526-83.790263C9.259154 130.566583 50.172343 93.049417 100.67968 93.049417z" p-id="7964" fill="#afb3b9"></path><path d="M100.67968 428.209737l822.660389 0c50.487589 0 91.400046 37.517166 91.400046 83.790263s-40.913189 83.790263-91.400046 83.790263L100.67968 595.790263c-50.507337 0-91.420526-37.517166-91.420526-83.790263S50.172343 428.209737 100.67968 428.209737z" p-id="7965" fill="#afb3b9"></path><path d="M100.67968 763.370057l822.660389 0c50.487589 0 91.400046 37.517166 91.400046 83.790263 0 46.272366-40.913189 83.790263-91.400046 83.790263L100.67968 930.950583c-50.507337 0-91.420526-37.517166-91.420526-83.790263C9.259154 800.887954 50.172343 763.370057 100.67968 763.370057z" p-id="7966" fill="#afb3b9"></path></svg>