<?xml version="1.0" standalone="no"?><!DOCTYPE svg PUBLIC "-//W3C//DTD SVG 1.1//EN" "http://www.w3.org/Graphics/SVG/1.1/DTD/svg11.dtd"><svg t="1487144492012" class="icon" style="" viewBox="0 0 1024 1024" version="1.1" xmlns="http://www.w3.org/2000/svg" p-id="2205" xmlns:xlink="http://www.w3.org/1999/xlink" width="64" height="64"><defs><style type="text/css"></style></defs><path d="M787.2 748.8l-140.8-140.8C678.4 556.8 704 505.6 704 448c0-140.8-115.2-256-256-256S192 307.2 192 448s115.2 256 256 256c57.6 0 108.8-19.2 153.6-51.2l147.2 140.8c6.4 6.4 12.8 6.4 25.6 6.4 6.4 0 19.2 0 25.6-6.4C800 780.8 800 761.6 787.2 748.8zM256 448c0-102.4 83.2-192 192-192 102.4 0 192 83.2 192 192 0 102.4-83.2 192-192 192C339.2 640 256 550.4 256 448z" p-id="2206" fill="#afb3b9"></path></svg>